
<svg width="15" height="16" viewBox="0 0 15 16" fill="none" xmlns="http://www.w3.org/2000/svg">
<path d="M8.88433 15.2086L14.5482 9.54636C14.8505 9.20805 15.0119 8.7669 14.9993 8.3134C14.9867 7.85989 14.8011 7.42838 14.4805 7.10737C14.1599 6.78636 13.7287 6.60016 13.2752 6.58697C12.8217 6.57378 12.3803 6.73459 12.0416 7.03642L9.35949 9.71358L9.35949 1.77483C9.35949 1.30412 9.1725 0.852683 8.83965 0.519837C8.50681 0.186991 8.05537 -3.03559e-07 7.58466 -3.24135e-07C7.11394 -3.44711e-07 6.66251 0.186991 6.32966 0.519837C5.99681 0.852682 5.80982 1.30412 5.80982 1.77483L5.80982 9.74007L3.10121 7.03642C2.94011 6.85612 2.7439 6.7106 2.52459 6.60878C2.30528 6.50696 2.0675 6.45098 1.8258 6.44427C1.5841 6.43755 1.34358 6.48025 1.11896 6.56975C0.894338 6.65924 0.690353 6.79365 0.519494 6.96473C0.348634 7.13582 0.214498 7.33998 0.1253 7.56472C0.0361029 7.78946 -0.00627934 8.03004 0.000752087 8.27173C0.00778256 8.51342 0.064076 8.75113 0.166187 8.9703C0.268298 9.18947 0.414075 9.38549 0.594592 9.54636L6.2585 15.2086C6.42308 15.3737 6.61869 15.5046 6.83407 15.5939C7.04944 15.6831 7.28034 15.7288 7.51346 15.7285C7.53333 15.7285 7.5532 15.7285 7.57141 15.7285C7.81425 15.7369 8.05621 15.695 8.28213 15.6056C8.50805 15.5161 8.71306 15.381 8.88433 15.2086Z" fill="url(#paint0_linear)"/>
<defs>
<linearGradient id="paint0_linear" x1="8" y1="-5.90908e-08" x2="8" y2="16" gradientUnits="userSpaceOnUse">
<stop stop-color="#9AFEAC"/>
<stop offset="1" stop-color="#01B69C"/>
</linearGradient>
</defs>
</svg>
