
<svg width="118" height="118" viewBox="0 0 118 118" fill="none" xmlns="http://www.w3.org/2000/svg">
<path opacity="0.5" d="M51.9289 7.07108C55.8341 3.16583 62.1658 3.16582 66.071 7.07107L110.928 51.9282C114.833 55.8335 114.833 62.1651 110.928 66.0704L66.071 110.928C62.1658 114.833 55.8341 114.833 51.9289 110.928L7.07174 66.0704C3.1665 62.1651 3.16649 55.8335 7.07174 51.9282L51.9289 7.07108Z" fill="url(#paint0_linear)"/>
<path d="M54 30C54 28.8954 54.8954 28 56 28H59V86H54V30Z" fill="#E7DFDD"/>
<path d="M59 28H62C63.1045 28 64 28.8954 64 30V86H59V28Z" fill="#DAD0CB"/>
<path d="M51 87.5C51 86.6716 51.6715 86 52.5 86H59V89H52.5C51.6715 89 51 88.3284 51 87.5Z" fill="#EAE6E6"/>
<path d="M67 87.5C67 88.3284 66.3284 89 65.5 89L59 89L59 86L65.5 86C66.3284 86 67 86.6716 67 87.5Z" fill="#DAD0CB"/>
<path d="M36 38C36 36.8954 36.8954 36 38 36H59V52H38C36.8954 52 36 51.1046 36 50V38Z" fill="#64D5FF"/>
<path d="M76.5926 51.3679C76.2145 51.7712 75.6863 52 75.1335 52L59 52L59 36L75.1335 36C75.6863 36 76.2145 36.2288 76.5926 36.6321L82.2176 42.6321C82.9388 43.4014 82.9388 44.5986 82.2176 45.3679L76.5926 51.3679Z" fill="#4290FB"/>
<path d="M81.5 71C81.5 72.1046 80.6045 73 79.5 73L58.5 73L58.5 57L79.5 57C80.6045 57 81.5 57.8954 81.5 59L81.5 71Z" fill="#FF405C"/>
<path d="M40.9074 57.6321C41.2855 57.2288 41.8136 57 42.3664 57L58.5 57L58.5 73L42.3664 73C41.8136 73 41.2854 72.7712 40.9074 72.3679L35.2824 66.3679C34.5611 65.5986 34.5611 64.4014 35.2824 63.6321L40.9074 57.6321Z" fill="#FF8E64"/>
<defs>
<linearGradient id="paint0_linear" x1="59" y1="118" x2="59" y2="9" gradientUnits="userSpaceOnUse">
<stop stop-color="#E7DFDD"/>
<stop offset="1" stop-color="#F4F1F1"/>
</linearGradient>
</defs>
</svg>
