<svg width="18" height="18" viewBox="0 0 18 18" fill="none" xmlns="http://www.w3.org/2000/svg">
<mask id="path-1-inside-1" fill="white">
<path fill-rule="evenodd" clip-rule="evenodd" d="M17.9668 8.16532C16.8022 9.26741 15.23 9.94327 13.5 9.94327C9.91015 9.94327 7 7.03313 7 3.44327C7 2.17867 7.36114 0.998406 7.98591 0C3.49275 0.503841 0 4.31578 0 8.9435C0 13.9141 4.02944 17.9435 9 17.9435C13.9706 17.9435 18 13.9141 18 8.9435C18 8.68134 17.9888 8.42179 17.9668 8.16532Z"/>
</mask>
<path d="M17.9668 8.16532L19.9595 7.99466C19.894 7.2295 19.3961 6.56945 18.6784 6.2962C17.9607 6.02295 17.15 6.18478 16.5922 6.71262L17.9668 8.16532ZM7.98591 0L9.68132 1.06094C10.0884 0.410412 10.0874 -0.415673 9.67866 -1.06518C9.26995 -1.71468 8.52565 -2.07306 7.76304 -1.98754L7.98591 0ZM16.5922 6.71262C15.7841 7.47729 14.6986 7.94327 13.5 7.94327V11.9433C15.7614 11.9433 17.8202 11.0575 19.3415 9.61801L16.5922 6.71262ZM13.5 7.94327C11.0147 7.94327 9 5.92856 9 3.44327H5C5 8.1377 8.80558 11.9433 13.5 11.9433V7.94327ZM9 3.44327C9 2.56469 9.24978 1.75056 9.68132 1.06094L6.2905 -1.06094C5.4725 0.246252 5 1.79264 5 3.44327H9ZM2 8.9435C2 5.34553 4.71622 2.37918 8.20879 1.98754L7.76304 -1.98754C2.26928 -1.3715 -2 3.28604 -2 8.9435H2ZM9 15.9435C5.13401 15.9435 2 12.8095 2 8.9435H-2C-2 15.0186 2.92487 19.9435 9 19.9435V15.9435ZM16 8.9435C16 12.8095 12.866 15.9435 9 15.9435V19.9435C15.0751 19.9435 20 15.0186 20 8.9435H16ZM15.9741 8.33597C15.9912 8.53577 16 8.73838 16 8.9435H20C20 8.6243 19.9864 8.30782 19.9595 7.99466L15.9741 8.33597Z" fill="#7A88D3" mask="url(#path-1-inside-1)"/>
</svg>
