
<svg width="124" height="82" viewBox="0 0 124 82" fill="none" xmlns="http://www.w3.org/2000/svg">
<g opacity="0.7">
<path d="M102.961 48.7681V43.0781H87.3701V55.8236H102.961V48.7681Z" fill="#E3BFBD"/>
<path d="M102.993 62.8923V55.2129H87.2242V72.4147H102.993V62.8923Z" fill="white"/>
<path d="M96.8452 59.2285L98.3578 72.3236H95.1084V54.002L98.75 57.3332L96.8452 59.2285Z" fill="#E20074"/>
<path d="M95.1084 54.1164L102.961 47.8574L101.972 60.9443L95.1084 54.1164Z" fill="#CDD6E0"/>
<path d="M100.628 72.3247L102.961 47.9717C105.464 48.6355 111.723 50.5435 116.73 52.865C121.737 55.1866 123.141 59.8637 123.217 61.9121V72.3247H109.049H100.628Z" fill="#40596B"/>
<path d="M100.628 72.3247L102.961 47.9717L112.804 56.2221L106.431 59.3516L112.804 65.8382L109.049 72.3247H100.628Z" fill="#334A5E"/>
<path d="M93.3174 59.2285L91.7575 72.3236H95.1084V54.002L91.3531 57.3332L93.3174 59.2285Z" fill="#E20074"/>
<path d="M95.1084 54.1164L87.1425 47.8574L88.1456 60.9443L95.1084 54.1164Z" fill="#CDD6E0"/>
<path d="M89.5892 72.3247L87.2563 47.9717C84.7527 48.6355 78.4937 50.5435 73.4866 52.865C68.4794 55.1866 67.0759 59.8637 67 61.9121V72.3247H81.168H89.5892Z" fill="#40596B"/>
<path d="M89.5892 72.3247L87.2563 47.9717L77.4126 56.2221L83.7854 59.3516L77.4126 65.8382L81.168 72.3247H89.5892Z" fill="#334A5E"/>
<path d="M109.161 33.2916C109.661 30.6515 108.459 29.0431 107.795 28.5689L105.747 36.1366C106.676 36.2883 108.66 35.9317 109.161 33.2916Z" fill="#E3BFBD"/>
<path d="M80.9953 33.2916C80.4036 30.2418 82.304 28.6448 83.3282 28.2275L85.3766 36.1366C84.1628 36.459 81.5871 36.3414 80.9953 33.2916Z" fill="#E3BFBD"/>
<path d="M88.4492 45.1264C83.8062 39.755 82.9489 34.012 83.1006 31.8118V27.7152L85.3197 21.0009L93.7409 18.4404L100.284 18.8387L106.6 22.8786L107.112 32.3808C107.34 38.4691 102.219 45.4678 99.9998 47.2885C97.7807 49.1093 97.4393 48.711 94.7651 48.8817C92.6256 49.0183 91.0666 48.0662 90.5545 47.573L88.4492 45.1264Z" fill="#F8D3CF"/>
<path d="M84.4093 28.3983C83.2713 30.7198 83.3662 34.2969 83.5558 35.7953C81.8299 30.295 80.1419 19.6927 87.1405 15.6528C89.6139 14.2251 92.3544 14.0377 94.6513 14.0026C98.4597 13.9443 101.446 14.8956 102.902 15.6528C110.23 19.613 108.345 30.7312 106.486 35.7953C107.283 32.0968 105.576 28 105.462 27.7155C105.348 27.431 105.519 25.212 105.291 23.7895C105.109 22.6515 103.129 23.3153 102.162 23.7895C94.822 26.35 87.6526 23.8464 86.4577 23.2205C85.2628 22.5946 84.4093 23.6188 84.58 25.4395C84.7166 26.8962 84.5231 28.019 84.4093 28.3983Z" fill="#40596B"/>
</g>
<g opacity="0.7">
<path d="M35.9606 48.7681V43.0781H20.3701V55.8236H35.9606V48.7681Z" fill="#E3BFBD"/>
<path d="M35.9926 62.8923V55.2129H20.2242V72.4147H35.9926V62.8923Z" fill="white"/>
<path d="M29.8452 59.2285L31.3578 72.3236H28.1084V54.002L31.75 57.3332L29.8452 59.2285Z" fill="#E20074"/>
<path d="M28.1084 54.1164L35.9606 47.8574L34.9718 60.9443L28.1084 54.1164Z" fill="#CDD6E0"/>
<path d="M33.6277 72.3247L35.9606 47.9717C38.4641 48.6355 44.7231 50.5435 49.7303 52.865C54.7374 55.1866 56.141 59.8637 56.2168 61.9121V72.3247H42.0488H33.6277Z" fill="#40596B"/>
<path d="M33.6277 72.3247L35.9606 47.9717L45.8042 56.2221L39.4314 59.3516L45.8042 65.8382L42.0488 72.3247H33.6277Z" fill="#334A5E"/>
<path d="M26.3174 59.2285L24.7575 72.3236H28.1084V54.002L24.353 57.3332L26.3174 59.2285Z" fill="#E20074"/>
<path d="M28.1084 54.1164L20.1425 47.8574L21.1456 60.9443L28.1084 54.1164Z" fill="#CDD6E0"/>
<path d="M22.5892 72.3247L20.2563 47.9717C17.7527 48.6355 11.4937 50.5435 6.48656 52.865C1.47939 55.1866 0.0758667 59.8637 1.90735e-06 61.9121V72.3247H14.168H22.5892Z" fill="#40596B"/>
<path d="M22.5892 72.3247L20.2563 47.9717L10.4126 56.2221L16.7854 59.3516L10.4126 65.8382L14.168 72.3247H22.5892Z" fill="#334A5E"/>
<path d="M42.1607 33.2916C42.6614 30.6515 41.4589 29.0431 40.7951 28.5689L38.7467 36.1366C39.676 36.2883 41.6599 35.9317 42.1607 33.2916Z" fill="#E3BFBD"/>
<path d="M13.9953 33.2916C13.4036 30.2418 15.304 28.6448 16.3282 28.2275L18.3766 36.1366C17.1628 36.459 14.5871 36.3414 13.9953 33.2916Z" fill="#E3BFBD"/>
<path d="M21.4492 45.1264C16.8062 39.755 15.9489 34.012 16.1006 31.8118V27.7152L18.3197 21.0009L26.7409 18.4404L33.2843 18.8387L39.6002 22.8786L40.1123 32.3808C40.3399 38.4691 35.2189 45.4678 32.9998 47.2885C30.7807 49.1093 30.4393 48.711 27.7651 48.8817C25.6256 49.0183 24.0666 48.0662 23.5545 47.573L21.4492 45.1264Z" fill="#F8D3CF"/>
<path d="M17.4093 28.3983C16.2713 30.7198 16.3662 34.2969 16.5558 35.7953C14.8299 30.295 13.1418 19.6927 20.1405 15.6528C22.6139 14.2251 25.3544 14.0377 27.6513 14.0026C31.4597 13.9443 34.4465 14.8956 35.9017 15.6528C43.2304 19.613 41.3451 30.7312 39.4864 35.7953C40.283 32.0968 38.576 28 38.4622 27.7155C38.3484 27.431 38.5191 25.212 38.2915 23.7895C38.1094 22.6515 36.1293 23.3153 35.162 23.7895C27.822 26.35 20.6526 23.8464 19.4577 23.2205C18.2628 22.5946 17.4093 23.6188 17.58 25.4395C17.7166 26.8962 17.5231 28.019 17.4093 28.3983Z" fill="#40596B"/>
</g>
<path d="M72.9553 48.5089V40.5703H51.2035V58.3528H72.9553V48.5089Z" fill="#E3BFBD"/>
<path d="M73 68.2143V57.5H51V81.5H73V68.2143Z" fill="white"/>
<path d="M64.4231 63.1036L66.5336 81.3739H62V55.8115L67.0807 60.4592L64.4231 63.1036Z" fill="#E20074"/>
<path d="M62 55.9708L72.9553 47.2383L71.5758 65.4971L62 55.9708Z" fill="#CDD6E0"/>
<path d="M69.7005 81.3748L72.9553 47.3975C76.4483 48.3236 85.1808 50.9857 92.1668 54.2247C99.1528 57.4636 101.111 63.9892 101.217 66.8471V81.3748H81.4496H69.7005Z" fill="#40596B"/>
<path d="M69.7005 81.3748L72.9553 47.3975L86.6891 58.9085L77.7979 63.2747L86.6891 72.3248L81.4496 81.3748H69.7005Z" fill="#334A5E"/>
<path d="M59.5012 63.1036L57.3248 81.3739H62V55.8115L56.7605 60.4592L59.5012 63.1036Z" fill="#E20074"/>
<path d="M62 55.9708L50.8859 47.2383L52.2855 65.4971L62 55.9708Z" fill="#CDD6E0"/>
<path d="M54.2995 81.3748L51.0447 47.3975C47.5517 48.3236 38.8192 50.9857 31.8332 54.2247C24.8472 57.4636 22.889 63.9892 22.7832 66.8471V81.3748H42.5504H54.2995Z" fill="#40596B"/>
<path d="M54.2995 81.3748L51.0447 47.3975L37.3109 58.9085L46.2021 63.2747L37.3109 72.3248L42.5504 81.3748H54.2995Z" fill="#334A5E"/>
<path d="M81.6057 26.916C82.3043 23.2324 80.6266 20.9885 79.7004 20.3269L76.8425 30.8853C78.1391 31.097 80.9071 30.5995 81.6057 26.916Z" fill="#E3BFBD"/>
<path d="M42.3094 26.916C41.4838 22.6609 44.1353 20.4328 45.5643 19.8506L48.4222 30.8853C46.7286 31.3351 43.1351 31.1711 42.3094 26.916Z" fill="#E3BFBD"/>
<path d="M52.7091 43.4275C46.2311 35.9334 45.035 27.9207 45.2467 24.8511V19.1355L48.3428 9.7677L60.092 6.19531L69.2214 6.75102L78.0333 12.3874L78.7478 25.645C79.0653 34.1393 71.9205 43.9038 68.8245 46.4442C65.7284 48.9845 65.2521 48.4288 61.5209 48.667C58.536 48.8575 56.3608 47.5291 55.6463 46.8411L52.7091 43.4275Z" fill="#F8D3CF"/>
<path d="M47.0726 20.0885C45.4849 23.3275 45.6172 28.3182 45.8818 30.4088C43.4738 22.7347 41.1186 7.94241 50.8832 2.30601C54.3341 0.314051 58.1576 0.0526082 61.3622 0.00356263C66.6757 -0.0777606 70.8428 1.24957 72.8732 2.30601C83.0981 7.8313 80.4678 23.3434 77.8745 30.4088C78.9859 25.2486 76.6043 19.5329 76.4456 19.1359C76.2868 18.739 76.525 15.6429 76.2074 13.6583C75.9534 12.0705 73.1907 12.9967 71.8412 13.6583C61.6003 17.2306 51.5976 13.7376 49.9305 12.8644C48.2634 11.9911 47.0726 13.4201 47.3108 15.9604C47.5013 17.9927 47.2314 19.5593 47.0726 20.0885Z" fill="#40596B"/>
</svg>
