
<svg width="118" height="118" viewBox="0 0 118 118" fill="none" xmlns="http://www.w3.org/2000/svg">
<circle cx="59" cy="59" r="59" fill="url(#paint0_linear)"/>
<path d="M37 66.1104V39.2273C46.3506 39.7727 55.8312 32.3766 59.5 29C69.0065 37.1039 78.3961 39.4545 81.8052 39.2273V66.1104C80.7143 79.1234 66.6104 86.7922 59.6948 89C43.0195 83.9351 37.6169 71.6299 37 66.1104Z" fill="url(#paint1_linear)"/>
<path fill-rule="evenodd" clip-rule="evenodd" d="M68.1688 59.2923C68.1688 64.1337 64.2441 68.0585 59.4026 68.0585C54.5611 68.0585 50.6364 64.1337 50.6364 59.2923C50.6364 54.4508 54.5611 50.526 59.4026 50.526C64.2441 50.526 68.1688 54.4508 68.1688 59.2923ZM71.6753 59.2923C71.6753 66.0703 66.1806 71.565 59.4026 71.565C52.6246 71.565 47.1299 66.0703 47.1299 59.2923C47.1299 52.5142 52.6246 47.0195 59.4026 47.0195C66.1806 47.0195 71.6753 52.5142 71.6753 59.2923ZM65.0355 57.8513C65.6922 57.2149 65.7086 56.1666 65.0721 55.5099C64.4357 54.8532 63.3874 54.8369 62.7307 55.4733L57.5275 60.5164L55.9514 59.0528C55.2813 58.4306 54.2336 58.4694 53.6113 59.1395C52.989 59.8097 53.0278 60.8574 53.698 61.4796L56.4252 64.0121C57.0705 64.6113 58.072 64.6006 58.7044 63.9877L65.0355 57.8513Z" fill="white"/>
<defs>
<linearGradient id="paint0_linear" x1="59" y1="0" x2="59" y2="118" gradientUnits="userSpaceOnUse">
<stop stop-color="#F0FFF4"/>
<stop offset="1" stop-color="#C6FFEC"/>
</linearGradient>
<linearGradient id="paint1_linear" x1="59.4026" y1="29" x2="59.4026" y2="89" gradientUnits="userSpaceOnUse">
<stop stop-color="#9AFEAC"/>
<stop offset="1" stop-color="#01B69C"/>
</linearGradient>
</defs>
</svg>
