
<svg width="118" height="118" viewBox="0 0 118 118" fill="none" xmlns="http://www.w3.org/2000/svg">
<circle cx="59" cy="59" r="59" fill="url(#paint0_linear)"/>
<circle cx="59" cy="59" r="30" fill="url(#paint1_linear)"/>
<path fill-rule="evenodd" clip-rule="evenodd" d="M62.3582 45.3429C62.3582 43.5501 60.9048 42.0967 59.1119 42.0967C57.3191 42.0967 55.8657 43.5501 55.8657 45.3429V45.5668C55.8657 47.3597 57.3191 48.8131 59.1119 48.8131C60.9048 48.8131 62.3582 47.3597 62.3582 45.5668V45.3429ZM62.3582 59C62.3582 57.2071 60.9048 55.7537 59.1119 55.7537C57.3191 55.7537 55.8657 57.2071 55.8657 59V72.5448C55.8657 74.3376 57.3191 75.791 59.1119 75.791C60.9048 75.791 62.3582 74.3376 62.3582 72.5448V59Z" fill="#FFDAE0"/>
<defs>
<linearGradient id="paint0_linear" x1="59" y1="0" x2="59" y2="118" gradientUnits="userSpaceOnUse">
<stop stop-color="#FFEBEE"/>
<stop offset="1" stop-color="#FFCDD5"/>
</linearGradient>
<linearGradient id="paint1_linear" x1="59" y1="29" x2="59" y2="89" gradientUnits="userSpaceOnUse">
<stop stop-color="#FFA48D"/>
<stop offset="1" stop-color="#FD3C84"/>
</linearGradient>
</defs>
</svg>
