<svg width="16" height="16" viewBox="0 0 16 16" fill="none" xmlns="http://www.w3.org/2000/svg">
<path d="M13.5998 14.4165L11.1338 14.4163V11.1231L14.4163 11.1233V13.5999C14.4163 14.0884 14.0881 14.4165 13.5998 14.4165ZM1.58355 13.5999V11.1231L4.79993 11.1233V14.4165L2.40005 14.4163C1.91159 14.4165 1.58355 14.0884 1.58355 13.5998V13.5999ZM11.1338 6.37283H14.4161V9.53975H11.1338V6.37283ZM4.79993 9.53975L1.58355 9.53958V6.37283L4.79993 6.37266V9.53958V9.53975ZM9.5504 14.4165L6.38348 14.4163V11.1231L9.5504 11.1233V14.4165ZM6.38348 6.37283H9.5504V9.53975H6.38348V6.37283ZM2.40005 1.58355H13.5998C14.0881 1.58355 14.4163 1.91176 14.4163 2.40005V4.78928H1.58355V2.40022C1.58355 1.91176 1.91159 1.58355 2.40005 1.58355ZM13.5998 0H2.40005C1.03995 0 0 1.04013 0 2.40005V13.5999C0 14.9599 1.03995 16 2.40005 16L13.5998 15.9998C14.9597 16 15.9997 14.9599 15.9997 13.5998V2.40005C15.9997 1.04013 14.9597 0 13.5998 0Z" fill="#383874"/>
</svg>
