<svg width="118" height="118" viewBox="0 0 118 118" fill="none" xmlns="http://www.w3.org/2000/svg">
<circle opacity="0.1" cx="59" cy="58.9999" r="41.6415" fill="#FF708B" stroke="#FF708B" stroke-width="8"/>
<circle opacity="0.1" cx="59" cy="59" r="59" fill="#FF708B"/>
<path d="M55.5361 39.4529L36.0922 73.1283C35.741 73.7364 35.556 74.4263 35.556 75.1286C35.5559 75.8308 35.7407 76.5208 36.0918 77.1289C36.4429 77.7371 36.948 78.2422 37.5562 78.5933C38.1643 78.9444 38.8543 79.1292 39.5565 79.1292H78.4412C79.1435 79.1292 79.8334 78.9444 80.4416 78.5933C81.0498 78.2422 81.5548 77.7371 81.9059 77.1289C82.257 76.5208 82.4418 75.8308 82.4418 75.1286C82.4417 74.4263 82.2568 73.7364 81.9055 73.1283L62.4637 39.4529C62.1127 38.8449 61.6078 38.34 60.9997 37.989C60.3917 37.6379 59.702 37.4531 58.9999 37.4531C58.2978 37.4531 57.6081 37.6379 57.0001 37.989C56.3921 38.34 55.8871 38.8449 55.5361 39.4529Z" fill="url(#paint0_linear)"/>
<path fill-rule="evenodd" clip-rule="evenodd" d="M58.7462 49.8389H59.2534C60.5022 49.8389 61.5145 50.8512 61.5145 52.0999V62.9072C61.5145 64.156 60.5022 65.1683 59.2534 65.1683H58.7462C57.4975 65.1683 56.4852 64.156 56.4852 62.9072V52.0999C56.4852 50.8512 57.4975 49.8389 58.7462 49.8389ZM61.5145 71.2249C61.5145 72.6137 60.3886 73.7395 58.9998 73.7395C57.611 73.7395 56.4852 72.6137 56.4852 71.2249C56.4852 69.8361 57.611 68.7103 58.9998 68.7103C60.3886 68.7103 61.5145 69.8361 61.5145 71.2249Z" fill="white"/>
<defs>
<linearGradient id="paint0_linear" x1="58.9989" y1="37.4531" x2="58.9989" y2="79.1292" gradientUnits="userSpaceOnUse">
<stop stop-color="#FFA48D"/>
<stop offset="1" stop-color="#FD3C84"/>
</linearGradient>
</defs>
</svg>