<svg width="22" height="22" viewBox="0 0 22 22" fill="none" xmlns="http://www.w3.org/2000/svg">
<path fill-rule="evenodd" clip-rule="evenodd" d="M11.8138 1C11.8138 0.447715 11.3661 0 10.8138 0C10.2615 0 9.81377 0.447715 9.81377 1V3.24264C9.81377 3.79492 10.2615 4.24264 10.8138 4.24264C11.3661 4.24264 11.8138 3.79492 11.8138 3.24264V1ZM10.8135 14.3135C12.7465 14.3135 14.3135 12.7465 14.3135 10.8135C14.3135 8.88048 12.7465 7.31348 10.8135 7.31348C8.88048 7.31348 7.31348 8.88048 7.31348 10.8135C7.31348 12.7465 8.88048 14.3135 10.8135 14.3135ZM10.8135 16.3135C13.851 16.3135 16.3135 13.851 16.3135 10.8135C16.3135 7.77591 13.851 5.31348 10.8135 5.31348C7.77591 5.31348 5.31348 7.77591 5.31348 10.8135C5.31348 13.851 7.77591 16.3135 10.8135 16.3135ZM10.8138 17.3848C11.3661 17.3848 11.8138 17.8325 11.8138 18.3848V20.6274C11.8138 21.1797 11.3661 21.6274 10.8138 21.6274C10.2615 21.6274 9.81377 21.1797 9.81377 20.6274V18.3848C9.81377 17.8325 10.2615 17.3848 10.8138 17.3848ZM6.16733 15.4601C6.55785 15.8507 6.55785 16.4838 6.16733 16.8744L4.58154 18.4601C4.19102 18.8507 3.55785 18.8507 3.16733 18.4601C2.77681 18.0696 2.77681 17.4365 3.16733 17.0459L4.75312 15.4601C5.14364 15.0696 5.77681 15.0696 6.16733 15.4601ZM18.4602 4.58147C18.8507 4.19095 18.8507 3.55778 18.4602 3.16726C18.0697 2.77674 17.4365 2.77674 17.046 3.16726L15.4602 4.75305C15.0697 5.14357 15.0697 5.77674 15.4602 6.16726C15.8507 6.55778 16.4839 6.55778 16.8744 6.16726L18.4602 4.58147ZM4.24264 10.8135C4.24264 11.3658 3.79492 11.8135 3.24264 11.8135H0.999999C0.447714 11.8135 0 11.3658 0 10.8135C0 10.2612 0.447715 9.81351 0.999999 9.81351H3.24264C3.79492 9.81351 4.24264 10.2612 4.24264 10.8135ZM20.6274 11.8135C21.1797 11.8135 21.6274 11.3658 21.6274 10.8135C21.6274 10.2612 21.1797 9.81351 20.6274 9.81351H18.3848C17.8325 9.81351 17.3848 10.2612 17.3848 10.8135C17.3848 11.3658 17.8325 11.8135 18.3848 11.8135H20.6274ZM6.1673 6.16703C5.77677 6.55756 5.14361 6.55756 4.75308 6.16703L3.1673 4.58125C2.77677 4.19072 2.77677 3.55756 3.1673 3.16703C3.55782 2.77651 4.19099 2.77651 4.58151 3.16703L6.1673 4.75282C6.55782 5.14334 6.55782 5.77651 6.1673 6.16703ZM17.046 18.4599C17.4365 18.8504 18.0697 18.8504 18.4602 18.4599C18.8507 18.0694 18.8507 17.4362 18.4602 17.0457L16.8744 15.4599C16.4839 15.0694 15.8507 15.0694 15.4602 15.4599C15.0697 15.8504 15.0697 16.4836 15.4602 16.8741L17.046 18.4599Z" fill="#7A88D3"/>
</svg>
